<svg aria-hidden="true" style="position: absolute; width: 0; height: 0; overflow: hidden;" version="1.1" xmlns="http://www.w3.org/2000/svg" xmlns:xlink="http://www.w3.org/1999/xlink">
<defs>

<symbol id="success-filled" viewBox="0 0 32 32">
<path fill="#00b068" style="fill: var(--color1, #00b068)" d="M16 2c3.713 0 7.274 1.475 9.899 4.101s4.101 6.186 4.101 9.899-1.475 7.274-4.101 9.899c-2.625 2.626-6.186 4.101-9.899 4.101s-7.274-1.475-9.899-4.101c-2.626-2.625-4.101-6.186-4.101-9.899s1.475-7.274 4.101-9.899c2.626-2.626 6.186-4.101 9.899-4.101zM14.256 18.762l-3.11-3.112c-0.111-0.111-0.244-0.2-0.39-0.26s-0.302-0.091-0.459-0.091c-0.158 0-0.314 0.031-0.459 0.091s-0.278 0.149-0.39 0.26c-0.225 0.225-0.352 0.531-0.352 0.849s0.127 0.624 0.352 0.849l3.96 3.96c0.111 0.112 0.243 0.201 0.389 0.262s0.302 0.092 0.46 0.092 0.314-0.031 0.46-0.092c0.146-0.061 0.278-0.15 0.389-0.262l8.2-8.202c0.113-0.111 0.203-0.243 0.264-0.389s0.094-0.303 0.094-0.461c0.001-0.158-0.030-0.315-0.090-0.462s-0.149-0.28-0.261-0.392c-0.112-0.112-0.245-0.201-0.391-0.261s-0.303-0.091-0.462-0.091-0.315 0.032-0.461 0.094c-0.146 0.061-0.278 0.151-0.39 0.264l-7.354 7.354z"></path>
</symbol>

<symbol id="icon-dropdown-hide" viewBox="0 0 32 32">
<path stroke-linejoin="miter" stroke-linecap="round" stroke-miterlimit="4" stroke-width="2.6667" d="M24 20l-8-8-8 8"></path>
</symbol>

<symbol id="icon-dropdown" viewBox="0 0 32 32">
<path stroke-linejoin="miter" stroke-linecap="round" stroke-miterlimit="4" stroke-width="2.6667" d="M24 12l-8 8-8-8"></path>
</symbol>

<symbol id="icon-urgent-execution" viewBox="0 0 32 32">
<path fill="#bcdfd1" style="fill: var(--color3, #bcdfd1)" d="M5.333 0h21.333c2.946 0 5.333 2.388 5.333 5.333v21.333c0 2.946-2.388 5.333-5.333 5.333h-21.333c-2.946 0-5.333-2.388-5.333-5.333v-21.333c0-2.946 2.388-5.333 5.333-5.333z"></path>
<path fill="none" stroke="#00b068" style="stroke: var(--color1, #00b068)" stroke-linejoin="round" stroke-linecap="round" stroke-miterlimit="4" stroke-width="1.3333" d="M20.108 9.333h-8.217c-0.308 0-0.558 0.25-0.558 0.558 0 1.777 0.706 3.481 1.962 4.737l0.813 0.813c0.081 0.081 0.121 0.121 0.15 0.16 0.176 0.236 0.176 0.561 0 0.797-0.029 0.039-0.069 0.079-0.15 0.16l-0.813 0.813c-1.256 1.256-1.962 2.96-1.962 4.737 0 0.308 0.25 0.558 0.558 0.558h8.217c0.308 0 0.558-0.25 0.558-0.558 0-1.777-0.706-3.481-1.962-4.737l-0.813-0.813c-0.081-0.081-0.121-0.121-0.15-0.16-0.176-0.236-0.176-0.561 0-0.797 0.029-0.039 0.069-0.079 0.15-0.16l0.813-0.813c1.256-1.256 1.962-2.96 1.962-4.737 0-0.308-0.25-0.558-0.558-0.558z"></path>
</symbol>

<symbol id="icon-expertise" viewBox="0 0 32 32">
<path fill="#bcdfd1" style="fill: var(--color3, #bcdfd1)" d="M5.333 0h21.333c2.946 0 5.333 2.388 5.333 5.333v21.333c0 2.946-2.388 5.333-5.333 5.333h-21.333c-2.946 0-5.333-2.388-5.333-5.333v-21.333c0-2.946 2.388-5.333 5.333-5.333z"></path>
<path fill="none" stroke="#00b068" style="stroke: var(--color1, #00b068)" stroke-linejoin="round" stroke-linecap="round" stroke-miterlimit="4" stroke-width="1.3333" d="M21.333 22c0-0.93 0-1.396-0.115-1.774-0.259-0.852-0.926-1.519-1.778-1.778-0.379-0.115-0.844-0.115-1.774-0.115h-3.333c-0.93 0-1.396 0-1.774 0.115-0.852 0.259-1.519 0.926-1.778 1.778-0.115 0.379-0.115 0.844-0.115 1.774"></path>
<path fill="none" stroke="#00b068" style="stroke: var(--color1, #00b068)" stroke-linejoin="round" stroke-linecap="round" stroke-miterlimit="4" stroke-width="1.3333" d="M16 16c1.657 0 3-1.343 3-3s-1.343-3-3-3c-1.657 0-3 1.343-3 3s1.343 3 3 3z"></path>
</symbol>

<symbol id="icon-art" viewBox="0 0 32 32">
<path fill="#bcdfd1" style="fill: var(--color3, #bcdfd1)" d="M5.333 0h21.333c2.946 0 5.333 2.388 5.333 5.333v21.333c0 2.946-2.388 5.333-5.333 5.333h-21.333c-2.946 0-5.333-2.388-5.333-5.333v-21.333c0-2.946 2.388-5.333 5.333-5.333z"></path>
<path fill="none" stroke="#00b068" style="stroke: var(--color1, #00b068)" stroke-linejoin="round" stroke-linecap="round" stroke-miterlimit="4" stroke-width="1.3333" d="M16.519 18l-2.519-2.518"></path>
<path fill="none" stroke="#00b068" style="stroke: var(--color1, #00b068)" stroke-linejoin="round" stroke-linecap="round" stroke-miterlimit="4" stroke-width="1.3333" d="M9.333 22.666c1.333 0 3.072 0.228 3.983-0.683s0.911-2.389 0-3.3c-0.911-0.911-2.389-0.911-3.3 0s0 2.65-0.683 3.983z"></path>
<path fill="none" stroke="#00b068" style="stroke: var(--color1, #00b068)" stroke-linejoin="round" stroke-linecap="round" stroke-miterlimit="4" stroke-width="1.3333" d="M13.333 18.666c-0.328-0.328-0.491-0.491-0.584-0.663-0.222-0.411-0.213-0.909 0.025-1.311 0.099-0.168 0.269-0.325 0.609-0.64l6.579-6.091c0.579-0.536 1.479-0.519 2.038 0.039s0.576 1.458 0.039 2.038l-6.091 6.579c-0.315 0.34-0.472 0.51-0.64 0.609-0.403 0.238-0.9 0.247-1.311 0.025-0.172-0.093-0.335-0.256-0.663-0.584z"></path>
</symbol>

<symbol id="icon-communications" viewBox="0 0 32 32">
<path fill="#bcdfd1" style="fill: var(--color3, #bcdfd1)" d="M5.333 0h21.333c2.946 0 5.333 2.388 5.333 5.333v21.333c0 2.946-2.388 5.333-5.333 5.333h-21.333c-2.946 0-5.333-2.388-5.333-5.333v-21.333c0-2.946 2.388-5.333 5.333-5.333z"></path>
<path fill="none" stroke="#00b068" style="stroke: var(--color1, #00b068)" stroke-linejoin="round" stroke-linecap="round" stroke-miterlimit="4" stroke-width="1.3333" d="M12.063 15.486c-0.041-0.267-0.063-0.541-0.063-0.819 0-2.946 2.403-5.333 5.368-5.333s5.368 2.388 5.368 5.333c0 0.665-0.123 1.302-0.347 1.89-0.047 0.122-0.070 0.183-0.080 0.231s-0.015 0.080-0.016 0.129c-0.001 0.049 0.005 0.102 0.019 0.21l0.268 2.18c0.029 0.236 0.044 0.354 0.004 0.44-0.034 0.075-0.095 0.135-0.171 0.168-0.087 0.037-0.204 0.020-0.44-0.014l-2.123-0.311c-0.111-0.016-0.166-0.024-0.217-0.024s-0.084 0.004-0.133 0.014c-0.049 0.010-0.113 0.034-0.239 0.081-0.589 0.221-1.227 0.341-1.894 0.341-0.279 0-0.553-0.021-0.82-0.062M13.088 22.667c1.977 0 3.579-1.642 3.579-3.667s-1.602-3.667-3.579-3.667c-1.977 0-3.579 1.642-3.579 3.667 0 0.407 0.065 0.799 0.184 1.164 0.051 0.155 0.076 0.232 0.084 0.285 0.009 0.055 0.010 0.086 0.007 0.142-0.003 0.053-0.016 0.114-0.043 0.234l-0.408 1.841 1.997-0.273c0.109-0.015 0.163-0.022 0.211-0.022 0.050 0 0.077 0.003 0.126 0.013 0.047 0.009 0.116 0.034 0.255 0.083 0.366 0.129 0.758 0.199 1.166 0.199z"></path>
</symbol>

<symbol id="icon-visit-arrow" viewBox="0 0 32 32">
<path fill="none" stroke="#00b068" style="stroke: var(--color1, #00b068)" stroke-linejoin="round" stroke-linecap="round" stroke-miterlimit="4" stroke-width="2.6667" d="M6.333 25.667l19.333-19.333M25.667 6.333h-18M25.667 6.333v18"></path>
</symbol>

<symbol id="icon-location" viewBox="0 0 32 32">
<path fill="none" stroke="#00b068" style="stroke: var(--color1, #00b068)" stroke-linejoin="round" stroke-linecap="round" stroke-miterlimit="4" stroke-width="1.3333" d="M20 14c0 1.061-0.421 2.078-1.172 2.828s-1.768 1.172-2.828 1.172c-1.061 0-2.078-0.421-2.828-1.172s-1.172-1.768-1.172-2.828c0-1.061 0.421-2.078 1.172-2.828s1.768-1.172 2.828-1.172c1.061 0 2.078 0.421 2.828 1.172s1.172 1.768 1.172 2.828v0z"></path>
<path fill="none" stroke="#00b068" style="stroke: var(--color1, #00b068)" stroke-linejoin="round" stroke-linecap="round" stroke-miterlimit="4" stroke-width="1.3333" d="M26 14c0 9.523-10 15-10 15s-10-5.477-10-15c0-2.652 1.054-5.196 2.929-7.071s4.419-2.929 7.071-2.929c2.652 0 5.196 1.054 7.071 2.929s2.929 4.419 2.929 7.071v0z"></path>
</symbol>

<symbol id="icon-mail" viewBox="0 0 32 32">
<path fill="none" stroke="#00b068" style="stroke: var(--color1, #00b068)" stroke-linejoin="round" stroke-linecap="round" stroke-miterlimit="4" stroke-width="1.3333" d="M29 9v14c0 0.796-0.316 1.559-0.879 2.121s-1.326 0.879-2.121 0.879h-20c-0.796 0-1.559-0.316-2.121-0.879s-0.879-1.326-0.879-2.121v-14M29 9c0-0.796-0.316-1.559-0.879-2.121s-1.326-0.879-2.121-0.879h-20c-0.796 0-1.559 0.316-2.121 0.879s-0.879 1.326-0.879 2.121M29 9v0.324c0 0.512-0.131 1.016-0.381 1.463s-0.61 0.823-1.046 1.092l-10 6.153c-0.473 0.291-1.018 0.446-1.573 0.446s-1.1-0.154-1.573-0.446l-10-6.152c-0.436-0.269-0.796-0.644-1.046-1.092s-0.381-0.951-0.381-1.463v-0.325"></path>
</symbol>

<symbol id="icon-favicon-1" viewBox="0 0 32 32">
<path fill="#f0f0f0" style="fill: var(--color4, #f0f0f0)" d="M4 0h24c2.209 0 4 1.791 4 4v24c0 2.209-1.791 4-4 4h-24c-2.209 0-4-1.791-4-4v-24c0-2.209 1.791-4 4-4z"></path>
<path fill="#00b068" style="fill: var(--color1, #00b068)" d="M3 9.5h2.579c1.665 0 2.789 0.075 3.373 0.225 0.589 0.15 1.037 0.396 1.343 0.739s0.497 0.725 0.573 1.148c0.076 0.418 0.115 1.242 0.115 2.473v4.553c0 1.167-0.057 1.948-0.172 2.345-0.109 0.391-0.303 0.699-0.581 0.923-0.278 0.219-0.622 0.375-1.031 0.466-0.409 0.086-1.026 0.128-1.85 0.128h-4.347v-13zM6.446 11.724v8.552c0.497 0 0.802-0.096 0.917-0.289 0.115-0.198 0.172-0.731 0.172-1.598v-5.051c0-0.589-0.019-0.966-0.057-1.132s-0.126-0.286-0.262-0.361c-0.136-0.080-0.393-0.12-0.77-0.12z"></path>
<path fill="#00b068" style="fill: var(--color1, #00b068)" d="M13.053 9.5h5.747v2.602h-2.3v2.465h2.153v2.473h-2.153v2.859h2.53v2.602h-5.976v-13z"></path>
<path fill="#00b068" style="fill: var(--color1, #00b068)" d="M29 9.5l-1.752 13h-5.231l-1.989-13h3.635c0.42 3.581 0.72 6.608 0.901 9.082 0.18-2.5 0.368-4.721 0.565-6.665l0.237-2.417h3.635z"></path>
</symbol>

<symbol id="icon-phone" viewBox="0 0 32 32">
<path fill="none" stroke="#00b068" style="stroke: var(--color1, #00b068)" stroke-linejoin="round" stroke-linecap="round" stroke-miterlimit="4" stroke-width="1.3333" d="M3 9c0 11.045 8.955 20 20 20h3c0.796 0 1.559-0.316 2.121-0.879s0.879-1.326 0.879-2.121v-1.829c0-0.688-0.468-1.288-1.136-1.455l-5.897-1.475c-0.587-0.147-1.203 0.073-1.564 0.556l-1.293 1.724c-0.376 0.501-1.025 0.723-1.613 0.507-2.183-0.803-4.165-2.070-5.81-3.714s-2.912-3.627-3.714-5.81c-0.216-0.588 0.005-1.237 0.507-1.613l1.724-1.293c0.484-0.361 0.703-0.979 0.556-1.564l-1.475-5.897c-0.081-0.324-0.268-0.612-0.532-0.818s-0.588-0.318-0.923-0.318h-1.829c-0.796 0-1.559 0.316-2.121 0.879s-0.879 1.326-0.879 2.121v3z"></path>
</symbol>

<symbol id="icon-close" viewBox="0 0 32 32">
<path stroke-linejoin="round" stroke-linecap="round" stroke-miterlimit="4" stroke-width="2.6667" d="M24 8l-16 16"></path>
<path stroke-linejoin="round" stroke-linecap="round" stroke-miterlimit="4" stroke-width="2.6667" d="M8 8l16 16"></path>
</symbol>

<symbol id="icon-green-arrow" viewBox="0 0 60 32">
<path fill="#00b068" style="fill: var(--color1, #00b068)" d="M2 14c-1.105 0-2 0.895-2 2s0.895 2 2 2v-4zM59.414 17.414c0.781-0.781 0.781-2.047 0-2.828l-12.728-12.728c-0.781-0.781-2.047-0.781-2.828 0s-0.781 2.047 0 2.828l11.314 11.314-11.314 11.314c-0.781 0.781-0.781 2.047 0 2.828s2.047 0.781 2.828 0l12.728-12.728zM2 18h56v-4h-56v4z"></path>
</symbol>

<symbol id="icon-burger-btn" viewBox="0 0 32 32">
<path d="M5.334 23.027v-1.333h21.333v1.333h-21.333zM5.334 16.667v-1.333h21.333v1.333h-21.333zM5.334 10.307v-1.333h21.333v1.333h-21.333z"></path>
</symbol>

<symbol id="icon-arrow-2" viewBox="0 0 32 32">
<path fill="none" stroke="#e4e5e6" style="stroke: var(--color1, #e4e5e6)" stroke-linejoin="miter" stroke-linecap="butt" stroke-miterlimit="4" stroke-width="0.8" d="M25.6 31.6h-19.2c-3.314 0-6-2.686-6-6v-19.2c0-3.314 2.686-6 6-6h19.2c3.314 0 6 2.686 6 6v19.2c0 3.314-2.686 6-6 6z"></path>
<path fill="none" stroke="#e4e5e6" style="stroke: var(--color1, #e4e5e6)" stroke-linejoin="round" stroke-linecap="round" stroke-miterlimit="4" stroke-width="1.6" d="M22.4 16h-12.8"></path>
<path fill="none" stroke="#e4e5e6" style="stroke: var(--color1, #e4e5e6)" stroke-linejoin="round" stroke-linecap="round" stroke-miterlimit="4" stroke-width="1.6" d="M14.4 20.8l-4.8-4.8 4.8-4.8"></path>
</symbol>

<symbol id="icon-arrow" viewBox="0 0 32 32">
<path stroke-linejoin="round" stroke-linecap="round" stroke-miterlimit="4" stroke-width="1.6" d="M9.6 16h12.8"></path>
<path stroke-linejoin="round" stroke-linecap="round" stroke-miterlimit="4" stroke-width="1.6" d="M17.6 11.2l4.8 4.8-4.8 4.8"></path>
</symbol>

</defs>
</svg>
